# xmcd
# 
# Track frame offsets:
#     150
#     13283
#     46971
#     79839
#     108094
#     126722
#     143114
#     166777
# 
# Disc length: 2622
# 
# Revision: 0
# Processed by: cddbd v1.5.2PL0 Copyright (c) Steve Scherf et al.
# Submitted via: BonkEnc v1.0.8
# 
DISCID=670a3c08
DTITLE=Roy Buchanan - ΒΗΜΑ BLUE
DYEAR=2008
DGENRE=Blues
TTITLE0=Short Fuse
TTITLE1=Strange Kind of Feeling
TTITLE2=Blues in E
TTITLE3=Chicago Smoke Shop
TTITLE4=Hey Joe
TTITLE5=Foxy Lady
TTITLE6=Pressure
TTITLE7=Fantasia
EXTD=
EXTT0=
EXTT1=
EXTT2=
EXTT3=
EXTT4=
EXTT5=
EXTT6=
EXTT7=
PLAYORDER=
